<svg width="190" height="37" fill="none" xmlns="http://www.w3.org/2000/svg">
  <g clip-path="url(#a)">
    <path d="M49.51 21.86c.196 1.834 1.862 4.978 6.698 4.978 4.214 0 6.24-2.686 6.24-5.306 0-2.358-1.601-4.29-4.77-4.945l-2.287-.491c-.882-.164-1.47-.655-1.47-1.441 0-.917.915-1.605 2.058-1.605 1.83 0 2.516 1.212 2.646 2.161l3.627-.818c-.196-1.736-1.732-4.65-6.306-4.65-3.463 0-6.01 2.39-6.01 5.272 0 2.26 1.404 4.127 4.507 4.814l2.124.491c1.241.262 1.732.852 1.732 1.572 0 .852-.686 1.605-2.124 1.605-1.895 0-2.842-1.179-2.94-2.456l-3.725.819Zm26.824 4.487h4.15a26.544 26.544 0 0 1-.164-2.915V10.233h-4.346V19.6c0 1.867-1.11 3.177-3.038 3.177-2.026 0-2.94-1.441-2.94-3.242v-9.302H65.65V20.42c0 3.504 2.222 6.353 6.11 6.353 1.698 0 3.561-.655 4.443-2.161 0 .655.066 1.408.13 1.736Zm12.968 6.223v-7.795c.784 1.08 2.418 1.965 4.64 1.965 4.54 0 7.579-3.603 7.579-8.483 0-4.781-2.712-8.384-7.416-8.384-2.418 0-4.215 1.08-4.934 2.325v-1.965h-4.214V32.57h4.345Zm7.939-14.28c0 2.882-1.764 4.552-3.986 4.552-2.221 0-4.018-1.703-4.018-4.552 0-2.85 1.797-4.52 4.018-4.52 2.222 0 3.986 1.67 3.986 4.52Zm6.74 3.668c0 2.522 2.091 4.847 5.522 4.847 2.384 0 3.92-1.113 4.736-2.39 0 .622.066 1.506.164 1.932h3.986c-.098-.557-.196-1.703-.196-2.555v-7.926c0-3.242-1.895-6.124-6.991-6.124-4.313 0-6.633 2.784-6.894 5.306l3.855.818c.131-1.408 1.176-2.62 3.071-2.62 1.83 0 2.712.95 2.712 2.096 0 .557-.294 1.016-1.209 1.147l-3.953.59c-2.679.392-4.803 1.997-4.803 4.879Zm6.436 1.605c-1.404 0-2.091-.917-2.091-1.867 0-1.245.882-1.867 1.993-2.03l3.627-.557v.72c0 2.85-1.699 3.734-3.529 3.734Zm16.371 2.784v-1.965c.848 1.375 2.547 2.358 4.769 2.358 4.575 0 7.58-3.636 7.58-8.515 0-4.782-2.712-8.417-7.416-8.417-2.386 0-4.15 1.048-4.868 2.194V2.635h-4.28v23.712h4.215Zm8.003-8.09c0 2.948-1.764 4.585-3.985 4.585-2.189 0-4.018-1.67-4.018-4.585 0-2.947 1.829-4.552 4.018-4.552 2.221 0 3.985 1.605 3.985 4.552Zm6.806 3.701c0 2.522 2.091 4.847 5.522 4.847 2.384 0 3.92-1.113 4.736-2.39 0 .622.066 1.506.164 1.932h3.986c-.098-.557-.196-1.703-.196-2.555v-7.926c0-3.242-1.895-6.124-6.992-6.124-4.312 0-6.632 2.784-6.893 5.306l3.855.818c.131-1.408 1.176-2.62 3.071-2.62 1.83 0 2.712.95 2.712 2.096 0 .557-.294 1.016-1.209 1.147l-3.953.59c-2.679.392-4.803 1.997-4.803 4.879Zm6.437 1.605c-1.405 0-2.092-.917-2.092-1.867 0-1.245.882-1.867 1.993-2.03l3.627-.557v.72c0 2.85-1.699 3.734-3.528 3.734Zm10.783-1.703c.195 1.834 1.862 4.978 6.697 4.978 4.215 0 6.24-2.686 6.24-5.306 0-2.358-1.601-4.29-4.77-4.945l-2.287-.491c-.882-.164-1.47-.655-1.47-1.441 0-.917.915-1.605 2.058-1.605 1.83 0 2.516 1.212 2.647 2.161l3.626-.818c-.196-1.736-1.731-4.65-6.305-4.65-3.463 0-6.011 2.39-6.011 5.272 0 2.26 1.404 4.127 4.508 4.814l2.124.491c1.241.262 1.731.852 1.731 1.572 0 .852-.686 1.605-2.123 1.605-1.895 0-2.843-1.179-2.941-2.456l-3.724.819Zm19.536-5.404c.098-1.474 1.34-3.177 3.594-3.177 2.483 0 3.529 1.572 3.594 3.177h-7.188Zm7.613 4.192c-.523 1.441-1.634 2.456-3.659 2.456-2.157 0-3.954-1.539-4.051-3.668h11.499c0-.065.066-.72.066-1.343 0-5.174-2.973-8.35-7.939-8.35-4.116 0-7.907 3.34-7.907 8.481 0 5.437 3.888 8.614 8.299 8.614 3.953 0 6.501-2.325 7.318-5.11l-3.626-1.08ZM20.834 36.11c-.935 1.18-2.831.534-2.854-.972l-.33-22.02h14.788c2.679 0 4.173 3.097 2.507 5.198L20.834 36.11Z" fill="#000"/>
    <path d="M20.834 36.11c-.935 1.18-2.831.534-2.854-.972l-.33-22.02h14.788c2.679 0 4.173 3.097 2.507 5.198L20.834 36.11Z" fill="url(#b)" fill-opacity=".2"/>
    <path d="M14.82.678c.935-1.18 2.83-.533 2.853.973l.145 22.02H3.215c-2.679 0-4.172-3.098-2.507-5.198L14.82.678Z" fill="#000"/>
  </g>
  <defs>
    <linearGradient id="b" x1="11.824" y1="10.012" x2="17.829" y2="21.303" gradientUnits="userSpaceOnUse">
      <stop/>
      <stop offset="1" stop-opacity="0"/>
    </linearGradient>
    <clipPath id="a">
      <path fill="#fff" d="M0 0h190v37H0z"/>
    </clipPath>
  </defs>
</svg>
